<?xml version="1.0" standalone="yes"?>

<svg version="1.1" viewBox="0.0 0.0 960.0 720.0" fill="none" stroke="none" stroke-linecap="square" stroke-miterlimit="10" xmlns="http://www.w3.org/2000/svg" xmlns:xlink="http://www.w3.org/1999/xlink"><clipPath id="p.0"><path d="m0 0l960.0 0l0 720.0l-960.0 0l0 -720.0z" clip-rule="nonzero"></path></clipPath><g clip-path="url(#p.0)"><path fill="#000000" fill-opacity="0.0" d="m0 0l960.0 0l0 720.0l-960.0 0z" fill-rule="evenodd"></path><path fill="#000000" d="m228.83727 130.60367l434.2362 0l0 434.23624l-434.2362 0z" fill-rule="evenodd"></path><path fill="#000000" fill-opacity="0.0" d="m228.83464 138.6063l434.2362 0l0 434.23624l-434.2362 0z" fill-rule="evenodd"></path><path fill="#ffffff" d="m429.44403 404.45004q8.78125 9.765625 12.984375 21.390625q4.203125 11.625 4.203125 27.046875q0 36.71875 -27.15625 60.56253q-27.140625 23.828125 -67.375 23.828125q-18.5625 0 -37.125 -5.765625q-18.546875 -5.765625 -32.015625 -13.96875l-8.40625 14.265625l-15.625 0l-2.734375 -94.93753l15.828125 0q4.875 17.578125 11.421875 31.75q6.546875 14.15625 17.28125 26.453125q10.15625 11.53125 23.734375 18.37503q13.578125 6.828125 31.546875 6.828125q13.46875 0 23.53125 -3.515625q10.0625 -3.515625 16.3125 -9.9687805q6.25 -6.4375 9.265625 -15.125q3.03125 -8.703125 3.03125 -20.03125q0 -16.59375 -9.375 -30.953125q-9.375 -14.359375 -27.921875 -21.78125q-12.703125 -5.078125 -29.109375 -11.21875q-16.40625 -6.15625 -28.3125 -11.625q-23.4375 -10.546875 -36.4375 -27.640625q-12.984375 -17.09375 -12.984375 -44.625q0 -15.828125 6.4375 -29.5q6.453125 -13.671875 18.375 -24.40625q11.328125 -10.15625 26.75 -15.921875q15.4375 -5.765625 32.234375 -5.765625q19.140625 0 34.265625 5.859375q15.140625 5.859375 27.640625 13.671875l8.015625 -13.28125l15.625 0l1.5625 92.0l-15.828125 0q-4.296875 -15.828125 -9.671875 -30.28125q-5.359375 -14.453125 -13.953125 -26.171875q-8.40625 -11.328125 -20.515625 -18.0625q-12.109375 -6.734375 -29.6875 -6.734375q-18.546875 0 -31.640625 11.921875q-13.078125 11.90625 -13.078125 29.09375q0 17.96875 8.390625 29.78125q8.40625 11.8125 24.421875 19.4375q14.25 6.828125 28.015625 11.8125q13.78125 4.984375 26.671875 10.640625q11.71875 5.078125 22.546875 11.53125q10.84375 6.4375 18.859375 15.03125z" fill-rule="nonzero"></path></g></svg>

